<svg width="18" height="18" viewBox="0 0 18 18" fill="none" xmlns="http://www.w3.org/2000/svg">
<path d="M16.875 1.125L9 9M16.875 1.125V5.55469M16.875 1.125H12.4453M15.8906 9.49219V13.725C15.8906 14.8276 15.8906 15.3789 15.676 15.8001C15.4873 16.1705 15.1861 16.4717 14.8157 16.6604C14.3946 16.875 13.8432 16.875 12.7406 16.875H4.275C3.1724 16.875 2.62109 16.875 2.19996 16.6604C1.82951 16.4717 1.52833 16.1705 1.33958 15.8001C1.125 15.3789 1.125 14.8276 1.125 13.725V5.25937C1.125 4.15678 1.125 3.60547 1.33958 3.18433C1.52833 2.81388 1.82951 2.5127 2.19996 2.32396C2.62109 2.10937 3.17239 2.10938 4.275 2.10938H8.50781" stroke="#EBC500" stroke-width="2" stroke-linecap="round" stroke-linejoin="round"/>
</svg>
