<svg width="52" height="52" viewBox="0 0 52 52" fill="none" xmlns="http://www.w3.org/2000/svg">
<path id="Vector" d="M26 0C11.6404 0 0 11.6404 0 26C0 40.3596 11.6404 52 26 52C40.3596 52 52 40.3596 52 26C52 11.6404 40.3596 0 26 0ZM35.9991 29.3339C35.9991 29.3339 38.2985 31.6035 38.8646 32.657C38.8807 32.6787 38.8889 32.7004 38.8944 32.7113C39.1246 33.0985 39.1787 33.3991 39.065 33.6239C38.8754 33.9978 38.2254 34.1819 38.0033 34.1981H33.9407C33.6591 34.1981 33.0687 34.125 32.3537 33.632C31.8039 33.2474 31.2622 32.6165 30.7341 32.0017C29.9461 31.0863 29.2635 30.2954 28.5756 30.2954C28.4882 30.2952 28.4014 30.3089 28.3183 30.3361C27.7983 30.5039 27.132 31.2461 27.132 33.2231C27.132 33.8406 26.6446 34.1954 26.3006 34.1954H24.44C23.8063 34.1954 20.5048 33.9733 17.5798 30.8885C13.9994 27.1104 10.7765 19.5324 10.7494 19.462C10.5462 18.9719 10.966 18.7091 11.4237 18.7091H15.5269C16.074 18.7091 16.2527 19.0422 16.3773 19.3374C16.5235 19.6815 17.0598 21.0491 17.94 22.5874C19.3672 25.0954 20.242 26.1137 20.9435 26.1137C21.0751 26.1121 21.2042 26.0787 21.32 26.0163C22.2354 25.507 22.0648 22.2435 22.0241 21.5665C22.0241 21.4391 22.0215 20.1067 21.553 19.4674C21.217 19.0044 20.6456 18.8283 20.2989 18.7633C20.4393 18.5697 20.6241 18.4127 20.838 18.3056C21.4663 17.9915 22.5983 17.9454 23.7222 17.9454H24.348C25.5667 17.9617 25.8809 18.0402 26.3222 18.1513C27.2161 18.3652 27.235 18.942 27.1565 20.9165C27.132 21.477 27.1078 22.1107 27.1078 22.8583C27.1078 23.0207 27.0996 23.1941 27.0996 23.3783C27.0724 24.3831 27.04 25.5233 27.7496 25.9919C27.8422 26.0499 27.9491 26.0809 28.0583 26.0813C28.3048 26.0813 29.0469 26.0813 31.0565 22.6335C31.6761 21.5238 32.2149 20.3707 32.668 19.1831C32.7085 19.1128 32.8278 18.8961 32.9685 18.812C33.0725 18.7592 33.1878 18.7321 33.3044 18.7335H38.128C38.6533 18.7335 39.0135 18.812 39.0813 19.0152C39.2004 19.3374 39.0596 20.3206 36.8578 23.3024L35.8746 24.5998C33.8785 27.2161 33.8785 27.3487 35.9991 29.3339Z" fill="#EBC500"/>
</svg>
